<svg xmlns="http://www.w3.org/2000/svg" style="display:none">
  <!-- Basic arrows / navigation -->
  <symbol id="back" viewBox="0 0 24 24"><path d="M15 18l-6-6 6-6" stroke="currentColor" stroke-width="2" fill="none" stroke-linecap="round" stroke-linejoin="round"/></symbol>
  <symbol id="arrow-left" viewBox="0 0 24 24"><path d="M5 12h14M11 6l-6 6 6 6" stroke="currentColor" stroke-width="2" fill="none" stroke-linecap="round" stroke-linejoin="round"/></symbol>
  <symbol id="arrow-right" viewBox="0 0 24 24"><path d="M19 12H5M13 6l6 6-6 6" stroke="currentColor" stroke-width="2" fill="none" stroke-linecap="round" stroke-linejoin="round"/></symbol>
  <symbol id="chevron-left" viewBox="0 0 24 24"><path d="M14 6l-6 6 6 6" stroke="currentColor" stroke-width="2" fill="none" stroke-linecap="round" stroke-linejoin="round"/></symbol>
  <symbol id="chevron-right" viewBox="0 0 24 24"><path d="M10 6l6 6-6 6" stroke="currentColor" stroke-width="2" fill="none" stroke-linecap="round" stroke-linejoin="round"/></symbol>
  <symbol id="chevron-down" viewBox="0 0 24 24"><path d="M6 9l6 6 6-6" stroke="currentColor" stroke-width="2" fill="none" stroke-linecap="round" stroke-linejoin="round"/></symbol>
  <symbol id="level-up" viewBox="0 0 24 24"><path d="M7 17V9a1 1 0 011-1h8m0 0l-4-4m4 4l-4 4" stroke="currentColor" stroke-width="2" fill="none" stroke-linecap="round" stroke-linejoin="round"/></symbol>
  <symbol id="prev" viewBox="0 0 24 24"><path d="M11 6l-6 6 6 6" stroke="currentColor" stroke-width="2" fill="none" stroke-linecap="round" stroke-linejoin="round"/><path d="M19 6l-6 6 6 6" stroke="currentColor" stroke-width="2" fill="none" stroke-linecap="round" stroke-linejoin="round"/></symbol>
  <symbol id="next" viewBox="0 0 24 24"><path d="M13 6l6 6-6 6" stroke="currentColor" stroke-width="2" fill="none" stroke-linecap="round" stroke-linejoin="round"/><path d="M5 6l6 6-6 6" stroke="currentColor" stroke-width="2" fill="none" stroke-linecap="round" stroke-linejoin="round"/></symbol>

  <!-- Common UI -->
  <symbol id="list" viewBox="0 0 24 24"><path d="M8 6h13M8 12h13M8 18h13" fill="none" stroke="currentColor" stroke-width="2" stroke-linecap="round"/><path d="M4 6h.01M4 12h.01M4 18h.01" fill="none" stroke="currentColor" stroke-width="4" stroke-linecap="round"/></symbol>
  <symbol id="calendar" viewBox="0 0 24 24"><path d="M7 3v3M17 3v3M4 7h16" fill="none" stroke="currentColor" stroke-width="2" stroke-linecap="round"/><path d="M5 6h14a1 1 0 011 1v13a1 1 0 01-1 1H5a1 1 0 01-1-1V7a1 1 0 011-1z" fill="none" stroke="currentColor" stroke-width="2" stroke-linejoin="round"/></symbol>
  <symbol id="chart" viewBox="0 0 24 24"><path d="M4 19h16" fill="none" stroke="currentColor" stroke-width="2" stroke-linecap="round"/><path d="M6 16l4-5 4 3 4-7" fill="none" stroke="currentColor" stroke-width="2" stroke-linecap="round" stroke-linejoin="round"/><path d="M6 16v3M10 11v8M14 14v5M18 7v12" fill="none" stroke="currentColor" stroke-width="2" stroke-linecap="round"/></symbol>

  <!-- Actions -->
  <symbol id="save" viewBox="0 0 24 24"><path d="M5 5h11l3 3v11a1 1 0 01-1 1H6a1 1 0 01-1-1V5z" fill="none" stroke="currentColor" stroke-width="2" stroke-linejoin="round"/><path d="M9 5v6h6V5" fill="none" stroke="currentColor" stroke-width="2" stroke-linejoin="round"/></symbol>
  <symbol id="delete" viewBox="0 0 24 24"><path d="M6 7h12M10 7v10m4-10v10M5 7l1 12a1 1 0 001 1h10a1 1 0 001-1l1-12M9 7V5a1 1 0 011-1h4a1 1 0 011 1v2" fill="none" stroke="currentColor" stroke-width="2" stroke-linecap="round" stroke-linejoin="round"/></symbol>
  <symbol id="refresh" viewBox="0 0 24 24"><path d="M4 4v6h6M20 20v-6h-6" fill="none" stroke="currentColor" stroke-width="2" stroke-linecap="round" stroke-linejoin="round"/><path d="M5 15a7 7 0 0012 2l2-3M19 9a7 7 0 00-12-2L5 10" fill="none" stroke="currentColor" stroke-width="2" stroke-linecap="round" stroke-linejoin="round"/></symbol>
  <symbol id="check" viewBox="0 0 24 24"><path d="M5 13l4 4L19 7" fill="none" stroke="currentColor" stroke-width="2" stroke-linecap="round" stroke-linejoin="round"/></symbol>
  <symbol id="external" viewBox="0 0 24 24"><path d="M14 3h7v7M10 14L21 3M5 5h6M5 5v14h14v-6" fill="none" stroke="currentColor" stroke-width="2" stroke-linecap="round" stroke-linejoin="round"/></symbol>
  <symbol id="link" viewBox="0 0 24 24"><path d="M10 14l4-4M7 17a4 4 0 010-6l2-2m6-2l2-2a4 4 0 010 6l-2 2" fill="none" stroke="currentColor" stroke-width="2" stroke-linecap="round" stroke-linejoin="round"/></symbol>
  <symbol id="unlink" viewBox="0 0 24 24"><path d="M10 14l4-4M8 12l-1.5 1.5a4 4 0 005.657 5.657L14 17M16 12l1.5-1.5a4 4 0 00-5.657-5.657L10 7" fill="none" stroke="currentColor" stroke-width="2" stroke-linecap="round" stroke-linejoin="round"/></symbol>
  <symbol id="edit" viewBox="0 0 24 24">
    <path d="M12 20h9" fill="none" stroke="currentColor" stroke-width="2" stroke-linecap="round" stroke-linejoin="round"/>
    <path d="M17 3l4 4L8 20H4v-4L17 3z" fill="none" stroke="currentColor" stroke-width="2" stroke-linecap="round" stroke-linejoin="round"/>
    <path d="M15.5 5.5l3 3" fill="none" stroke="currentColor" stroke-width="2" stroke-linecap="round" stroke-linejoin="round"/>
  </symbol>
  <symbol id="clear" viewBox="0 0 24 24"><path d="M6 6l12 12M6 18L18 6" fill="none" stroke="currentColor" stroke-width="2" stroke-linecap="round"/></symbol>
  <symbol id="close" viewBox="0 0 24 24"><path d="M6 6l12 12M6 18L18 6" fill="none" stroke="currentColor" stroke-width="2" stroke-linecap="round"/></symbol>
  <symbol id="plus" viewBox="0 0 24 24"><path d="M12 5v14M5 12h14" fill="none" stroke="currentColor" stroke-width="2" stroke-linecap="round"/></symbol>
  <symbol id="archive" viewBox="0 0 24 24"><path d="M4 7h16l-2 13H6L4 7z" fill="none" stroke="currentColor" stroke-width="2" stroke-linejoin="round"/><path d="M3 4h18v3H3zM10 12h4" fill="none" stroke="currentColor" stroke-width="2" stroke-linecap="round"/></symbol>
  <symbol id="postings" viewBox="0 0 24 24"><path d="M5 6h14M5 12h14M5 18h8" fill="none" stroke="currentColor" stroke-width="2" stroke-linecap="round"/></symbol>
  <symbol id="groups" viewBox="0 0 24 24"><path d="M9 11a4 4 0 110-8 4 4 0 010 8zM17 13a3 3 0 100-6 3 3 0 000 6z" fill="none" stroke="currentColor" stroke-width="2" stroke-linejoin="round"/><path d="M3 21v-2a6 6 0 0112 0v2M15 21v-1.5a4.5 4.5 0 018 0V21" fill="none" stroke="currentColor" stroke-width="2" stroke-linecap="round" stroke-linejoin="round"/></symbol>
  <symbol id="security" viewBox="0 0 24 24"><path d="M12 3l8 4v5c0 5-3.5 9-8 9s-8-4-8-9V7l8-4z" fill="none" stroke="currentColor" stroke-width="2" stroke-linejoin="round"/><path d="M9 12l2 2 4-4" fill="none" stroke="currentColor" stroke-width="2" stroke-linecap="round" stroke-linejoin="round"/></symbol>
  <symbol id="download" viewBox="0 0 24 24"><path d="M12 4v10" stroke="currentColor" stroke-width="2" stroke-linecap="round" stroke-linejoin="round"/><path d="M8 10l4 4 4-4" stroke="currentColor" stroke-width="2" fill="none" stroke-linecap="round" stroke-linejoin="round"/><path d="M5 18h14" stroke="currentColor" stroke-width="2" stroke-linecap="round"/></symbol>
  <symbol id="upload" viewBox="0 0 24 24"><path d="M12 20V10" stroke="currentColor" stroke-width="2" stroke-linecap="round" stroke-linejoin="round"/><path d="M8 14l4-4 4 4" stroke="currentColor" stroke-width="2" fill="none" stroke-linecap="round" stroke-linejoin="round"/><path d="M5 6h14" stroke="currentColor" stroke-width="2" stroke-linecap="round"/></symbol>
  <symbol id="restore" viewBox="0 0 24 24"><path d="M12 5a7 7 0 017 7 7 7 0 01-7 7 7 7 0 01-7-7" fill="none" stroke="currentColor" stroke-width="2" stroke-linecap="round" stroke-linejoin="round"/><path d="M5 8l-1 5 5-1" fill="none" stroke="currentColor" stroke-width="2" stroke-linecap="round" stroke-linejoin="round"/></symbol>
  <symbol id="undo" viewBox="0 0 24 24"><path d="M7 7l-4 4 4 4" fill="none" stroke="currentColor" stroke-width="2" stroke-linecap="round" stroke-linejoin="round"/><path d="M20 15a8 8 0 00-8-8H3" fill="none" stroke="currentColor" stroke-width="2" stroke-linecap="round" stroke-linejoin="round"/></symbol>
  <symbol id="accounts" viewBox="0 0 24 24">
    <path d="M4 8h12v10H4z" fill="none" stroke="currentColor" stroke-width="2" stroke-linejoin="round"/>
    <path d="M8 6h12v10" fill="none" stroke="currentColor" stroke-width="2" stroke-linejoin="round"/>
    <path d="M7 12h6" fill="none" stroke="currentColor" stroke-width="2" stroke-linecap="round"/>
    <path d="M7 15h4" fill="none" stroke="currentColor" stroke-width="2" stroke-linecap="round"/>
  </symbol>
  <symbol id="merge" viewBox="0 0 24 24">
    <path d="M6 5l6 7 6-7" fill="none" stroke="currentColor" stroke-width="2" stroke-linecap="round" stroke-linejoin="round"/>
    <path d="M12 12v7" fill="none" stroke="currentColor" stroke-width="2" stroke-linecap="round"/>
    <path d="M9 19h6" fill="none" stroke="currentColor" stroke-width="2" stroke-linecap="round"/>
  </symbol>
  <symbol id="bank" viewBox="0 0 24 24">
    <path d="M4 10h16" stroke="currentColor" stroke-width="2" stroke-linecap="round"/>
    <path d="M6 10v8M10 10v8M14 10v8M18 10v8" stroke="currentColor" stroke-width="2" stroke-linecap="round"/>
    <path d="M3 20h18" stroke="currentColor" stroke-width="2" stroke-linecap="round"/>
    <path d="M12 4L4 8h16l-8-4z" fill="none" stroke="currentColor" stroke-width="2" stroke-linejoin="round"/>
  </symbol>
  <symbol id="account" viewBox="0 0 24 24">
    <circle cx="12" cy="8" r="3" fill="none" stroke="currentColor" stroke-width="2" stroke-linecap="round" stroke-linejoin="round"/>
    <path d="M4 20c0-4 4-6 8-6s8 2 8 6" fill="none" stroke="currentColor" stroke-width="2" stroke-linecap="round" stroke-linejoin="round"/>
  </symbol>

  <!-- Info -->
  <symbol id="info" viewBox="0 0 24 24">
    <circle cx="12" cy="12" r="10" fill="none" stroke="currentColor" stroke-width="2"/>
    <path d="M12 8h.01" fill="none" stroke="currentColor" stroke-width="2" stroke-linecap="round"/>
    <path d="M11 12h2v6h-2" fill="none" stroke="currentColor" stroke-width="2" stroke-linecap="round" stroke-linejoin="round"/>
  </symbol>

  <!-- Attachment -->
  <symbol id="attachment" viewBox="0 0 24 24">
    <path d="M21 7.5L12 16.5a5 5 0 01-7.07 0 5 5 0 010-7.07L13 1.36" fill="none" stroke="currentColor" stroke-width="2" stroke-linecap="round" stroke-linejoin="round"/>
    <path d="M19 5.5L9 15.5a2.5 2.5 0 01-3.54-3.54L15 2.93" fill="none" stroke="currentColor" stroke-width="2" stroke-linecap="round" stroke-linejoin="round"/>
  </symbol>
</svg>
